{"title":"Defloration - Hardcore - Anna Little","uid":7315636,"size":361899982,"categoryP":"porn","categoryS":"movies","magnet":"?xt=urn:btih:2ea5383aa6ecd19d5686dc59a101187bcc5eb4b4&amp;dn=Defloration+-+Hardcore+-+Anna+Little&amp;tr=udp%3A%2F%2Ftracker.openbittorrent.com%3A80&amp;tr=udp%3A%2F%2Fopen.demonii.com%3A1337&amp;tr=udp%3A%2F%2Ftracker.coppersurfer.tk%3A6969&amp;tr=udp%3A%2F%2Fexodus.desync.com%3A6969","seeders":0,"leechers":1,"uploader":"soulless123","files":2,"time":1338478731,"description":"Seeding Time 24/7\n\nDon't Forget To Say Thanks If You Like My Post\n\n\n\n-=Media Info=-\n\nFormat : AVI\nFormat/Info : Audio Video Interleave\nFile size : 345 MiB\nDuration : 21mn 52s\nOverall bit rate : 2 206 Kbps\nWriting library : VirtualDub build 32593/release\n\nVideo\nID : 0\nFormat : MPEG-4 Visual\nFormat settings, BVOP : 2\nFormat settings, QPel : No\nFormat settings, GMC : No warppoints\nFormat settings, Matrix : Default (H.263)\nMuxing mode : Packed bitstream\nCodec ID : DX50\nCodec ID/Hint : DivX 5\nDuration : 21mn 52s\nBit rate : 2 068 Kbps\nWidth : 712 pixels\nHeight : 400 pixels\nDisplay aspect ratio : 16:9\nFrame rate : 25.000 fps\nColor space : YUV\nChroma subsampling : 40\nBit depth : 8 bits\nScan type : Progressive\nCompression mode : Lossy\nBits/(Pixel*Frame) : 0.290\nStream size : 324 MiB (94%)\nWriting library : DivX 6.8.5 (UTC 2009-08-20)\n\nAudio\nID : 1\nFormat : MPEG Audio\nFormat version : Version 1\nFormat profile : Layer 3\nMode : Joint stereo\nMode extension : MS Stereo\nCodec ID : 55\nCodec ID/Hint : MP3\nDuration : 21mn 52s\nBit rate mode : Constant\nBit rate : 128 Kbps\nChannel(s) : 2 channels\nSampling rate : 48.0 KHz\nCompression mode : Lossy\nStream size : 20.0 MiB (6%)\nAlignment : Split accross interleaves\nInterleave, duration : 40 ms (1.00 video frame)\nInterleave, preload duration : 500 ms\nWriting library : LAME3.98.2\n\nSecreen\n &lt;a href=&quot;\nhttp://bayimg.com/iaOkgAADO&quot; rel=&quot;nofollow&quot; target=&quot;_NEW&quot;&gt;\nhttp://bayimg.com/iaOkgAADO&lt;/a&gt;","torrent":{"xt":"urn:btih:2ea5383aa6ecd19d5686dc59a101187bcc5eb4b4","amp;dn":"Defloration+-+Hardcore+-+Anna+Little","amp;tr":["udp%3A%2F%2Ftracker.openbittorrent.com%3A80","udp%3A%2F%2Fopen.demonii.com%3A1337","udp%3A%2F%2Ftracker.coppersurfer.tk%3A6969","udp%3A%2F%2Fexodus.desync.com%3A6969"],"infoHash":"2ea5383aa6ecd19d5686dc59a101187bcc5eb4b4","infoHashBuffer":{"type":"Buffer","data":[46,165,56,58,166,236,209,157,86,134,220,89,161,1,24,123,204,94,180,180]},"announce":[],"urlList":[]}}